<svg width="1773" height="2364" xmlns="http://www.w3.org/2000/svg"><defs><path id="a" d="M841.645 1064.395h125.657v143.091H841.645z"/><path id="b" d="M841.645 1064.395h125.657v143.091H841.645z"/><path id="c" d="M841.645 1064.395h125.657v143.091H841.645z"/></defs><path style="opacity:1;fill:#fdbccb;fill-opacity:1;stroke:#000;stroke-width:3.1;stroke-dasharray:none;paint-order:stroke fill markers" d="M293.893 1735.804c-69.286 41.871-165.738 59.04-195.835 105.633-44.224 68.463-24.141 148.072 8.586 198.112 25.863 39.545 92.852 77.285 157.059 83.836 49.373 5.038 107.2-7.228 109.396 5.5 34.41 199.392 404.823 229.886 539.805 14.695 26.49-10.169 48.946-8.46 55.105-1.836 249.797 268.593 548.01 97.116 525.334-22.042-2.952-15.51 80.38-17.689 116.137-60.042 124.942-147.989 60.568-256.66-123.485-314.672 54.83-62.995 173.478-150.024 240.242-369.161 35.867-117.726 58.067-336.302 44.417-468.806-10.014-97.203-26.319-233.289-82.371-321.897-63.518-100.41-161.566-304.754-305.406-363.23-129.829-52.78-289.827-144.65-503.043-142-161.226 2.006-338.71 54.547-469.602 149.874-86.016 62.644-180.248 135.895-239.513 212.411-34.043 43.952-25.23 57.168-69.497 130.985C67.75 628.981-22.746 957.088-.479 1098.121c6.372 40.358-1.694 104.41 8.722 159.49 15.684 82.944 52.63 159.467 78.673 215.12 56.133 119.96 129.482 173.468 206.977 263.073z" transform="translate(67.105 112.655)scale(.92144)"/><text xml:space="preserve" style="font-style:normal;font-variant:normal;font-weight:400;font-stretch:normal;font-size:114.615px;font-family:&quot;Cambria Math&quot;;-inkscape-font-specification:&quot;Cambria Math&quot;;text-align:start;writing-mode:lr-tb;direction:ltr;white-space:pre;shape-inside:url(#a);shape-padding:1.29883;opacity:1;fill:#000;fill-opacity:1;stroke:#000;stroke-width:3.1;stroke-dasharray:none;paint-order:stroke fill markers" transform="matrix(-1.32564 0 0 1.31421 2074.28 -344.33)"><tspan x="842.943" y="1178.517"><tspan style="font-family:NSimSun;-inkscape-font-specification:NSimSun">３</tspan></tspan></text><text xml:space="preserve" style="font-style:normal;font-variant:normal;font-weight:400;font-stretch:normal;font-size:114.615px;font-family:&quot;Cambria Math&quot;;-inkscape-font-specification:&quot;Cambria Math&quot;;text-align:start;writing-mode:lr-tb;direction:ltr;white-space:pre;shape-inside:url(#b);shape-padding:1.29883;fill:#000;fill-opacity:1;stroke:#000;stroke-width:3.1;stroke-dasharray:none;paint-order:stroke fill markers" transform="matrix(.87665 0 0 .8404 -160.832 19.41)"><tspan x="842.943" y="1178.517">＞</tspan></text><text xml:space="preserve" style="font-style:normal;font-variant:normal;font-weight:400;font-stretch:normal;font-size:114.615px;font-family:&quot;Cambria Math&quot;;-inkscape-font-specification:&quot;Cambria Math&quot;;text-align:start;writing-mode:lr-tb;direction:ltr;white-space:pre;shape-inside:url(#c);shape-padding:1.29883;fill:#000;fill-opacity:1;stroke:#000;stroke-width:3.1;stroke-dasharray:none;paint-order:stroke fill markers" transform="matrix(-.87665 0 0 .8404 1946.686 25.804)"><tspan x="842.943" y="1178.517">＞</tspan></text><path style="opacity:1;fill:none;fill-opacity:1;stroke:#000;stroke-width:3.1;stroke-dasharray:none;paint-order:stroke fill markers" d="M548.758 1007.246v34.42c0 2.471-.701 8.288 0 10.39.193.581 1.025.751 1.299 1.3.26.519-.26 1.428 0 1.947.484.968 2.04 1.02 2.597 1.949.123.205-.306 3.59 0 3.896.484.484 1.414.222 1.948.65.986.788.898 2.546 1.949 3.247.36.24 1.058-.36 1.299 0 .36.54-.46 1.489 0 1.948.63.63 1.799.25 2.597.65 2.422 1.21.403 1.824 3.247 3.246.304.152 17.072.65 18.184.65 1.83 0 12.258.446 12.988-.65.24-.36-.193-.911 0-1.298.097-.194.433 0 .65 0 .433-.65 1.084-1.198 1.299-1.949.451-1.58 0-4.747 0-6.494v-19.482c0-2.327-.329-4.845 0-7.144l.649-2.598c.433-.433 1.105-.718 1.299-1.299.253-.76.31-3.98.65-4.545.4-.67 1.396-.747 1.948-1.3.153-.152-.13-.476 0-.649.55-.735 1.502-1.145 1.948-1.948 3.22-1.226.734-3.502 1.299-5.195.096-.29.552-.36.649-.65.471-1.413-.798-3.998 0-5.195 1.459-2.188 1.299 1.117 1.299-2.598m-69.488 123.39v44.16c0 1.594-.603 10.785 0 11.69.865 1.297 2.854.232 3.897.649 2.513 1.005.288 1.587 1.948 3.247 1.388 1.388 2.38.144 3.896.65 5.747 1.915-1.624.844 3.897 1.948 2.385.477 5.356 0 7.793 0h18.833c6.958 0-.728.459 2.598-.65.616-.205 1.658.581 1.948 0 .194-.387-.16-.897 0-1.299 1.092-2.73 2.182-2.648 3.247-5.844.52-1.561-.884-4.52 0-5.845.6-.9 1.832-1.183 2.598-1.948.67-.67-.535-12.035 0-13.638.342-1.027 1.299-1.732 1.948-2.598.433-1.732.912-3.453 1.299-5.195 1.152-5.187-.874-10.99 0-16.236.855-5.128.65 1.17.65-3.896m-64.22 99.057c0 .306-.306.918 0 .918s0-1.225 0-.918v2.755c0 1.281.07 2.399.23 3.673.028.227-.043 1 0 1.148.093.33.365.59.459.919.16.56-.184 1.285 0 1.837.034.102.195.127.23.23.275.826-.276 1.928 0 2.755-.798 1.8.543.398.688.688.592 1.185.207 2.25.46 2.756.144.29.52.41.688.688.197.329-.054.77 0 1.148.22 1.545.255.33.689 2.067.215.86-.008 4.456.23 5.051.08.201.339.28.459.46.184.276-.018 2.226 0 2.295.052.21.378.259.459.46.263.658-.025 2.91.23 3.673.14.424.532.73.688 1.148.29.26-.097.628 0 .919.054.162.202.29.23.459.069.413-.086 1.722 0 2.066.142.569 1.006 1.728 1.148 2.296.093.372-.121.785 0 1.148.054.163.405.067.46.23.091.277.03 2.128.229 2.526.2.399.948.29 1.148.688.061.124.143 1.81.23 2.067.121.365 1.593 3.152 1.836 3.444.208.25.509.418.689.689.335.502.166 1.08.46 1.607.267.482.625.91.918 1.377.09.146.175.297.23.46.023.073-.07.195 0 .23.136.067.316-.058.458 0 .221.087 1.276.841 1.378 1.147.097.29-.137.645 0 .919.123.247.468.293.689.459.306.23.306.46.689.689.207.124.554.028.688.23.528.79.004 1.314.919 1.836.339.194.791.071 1.148.23.59.262.996.903 1.607 1.148.142.057.306 0 .46 0 .305.23.585.499.918.689.339.193.823.013 1.148.23.142.094.108.337.23.458.366.367 2.42.204 2.525.23.166.041.087.364.23.46.127.084.314-.049.459 0 .102.033.124.203.23.229.586.147 1.459 0 2.066 0h4.822c1.948 0 4.075.275 5.97-.23.7-.187 1.37-.48 2.066-.689.66-.197 1.402.182 2.066 0 .577-.157.803-.983 1.378-1.148.294-.084.616.05.918 0 .739-.123.715-.52 1.378-.918.197-.118.526.162.689 0 1.206-1.206 2.145-2.797 3.214-4.133.203-.253.509-.418.689-.689.134-.201.121-.472.23-.688.123-.247.371-.428.459-.69.333-1-.425-.396.23-1.377.33-.497.88-.843 1.147-1.378.208-.416.066-.941.23-1.377.076-.203.383-.257.46-.46.163-.435.02-.96.229-1.377.267-.535.857-.855 1.148-1.378.183-.33.11-1.856.23-2.296.171-.63.516-1.206.688-1.836.06-.222 0-.46 0-.69.153-.459.273-.93.46-1.377.197-.474.526-.89.688-1.378.94-2.821-.397.066.23-2.755.06-.27.336-.442.459-.689.178-.356.076-5.049.23-5.74.227-1.023.942-1.705 1.148-2.525.302-1.21 0-6.047 0-7.577v-7.118c0-.854-.206-1.932 0-2.755.238-.955.23-1.501.23-2.526m575.845-3.444c.284 1.944.586 3.894.804 5.855.012.106-.016.751 0 .804.805 2.683-.012-.531.574 1.033.311.83.115 3.152.115 4.018 0 .468.045 1.042 0 1.492-.082.82-.135-.15-.345.69-.114.292.07.62 0 .918-.19.82-.435 1.579-.574 2.41-.043.261.043.543 0 .804-.04.239-.186.45-.23.689-.072.4 0 .965 0 1.378v2.984c0 .763-.148 1.668 0 2.411.056.273.176.53.23.804.074.37.01 1.048.115 1.377.071.212.27.364.345.574 1.3 3.683.119.373.344 1.722.084.507.396.985.46 1.493.023.19-.043.387 0 .574.09.407.432.77.573 1.148.07.183.053.389.115.574.174.522.717 1.06.918 1.492.098.211.011.48.115.69.034.067.18-.06.23 0 .432.518.814 1.638 1.033 2.295q.19.57.344 1.148c.05.189.028.4.115.574.038.076.211.031.23.115.066.299-.064.62 0 .918-.085.48.466.655.574 1.034.042.147-.025.308 0 .459.052.311.173.608.23.918.02.113 0 .23 0 .345 0 .23-.046.463 0 .689.033.167.175.296.229.459.062.185.046.391.115.574.048.129.198.21.23.344.086.375 0 .78.114 1.148.048.155.266.203.345.345.154.277.475 1.147.574 1.492.094.328.169 1.127.344 1.378.128.182.426.177.574.344.17.192.243.453.344.689.015.035-.027.088 0 .115.136.135.337.197.46.344.077.093.077.23.114.344.192.23.363.478.575.69.06.06.169.053.23.114.134.135.208.324.343.46.136.135.324.208.46.344.135.135.193.341.344.459.27.21.729.174.918.459.115.172.096.418.23.574.158.185.9.503 1.148.689.592.444 1.24 1.24 1.722 1.722.447.447.915.8 1.378 1.263.098.098.115.268.23.344.13.088.323.034.459.115.073.044.044.182.114.23.172.114.429.083.574.23.112.11.016.335.115.458.076.094.259.03.345.115s.018.272.114.344c.082.062.963.343 1.148.574.076.094.01.285.115.345.202.115.475.023.689.115 1.032-.418.72.68 1.148.918.244.135.554.105.804.23.077.038.044.182.114.23.61.405.46.088 1.034.344.674.3 1.256.755 1.951 1.033.304.121.6.27.919.344.298.07.637-.12.918 0 .275.118.399.502.689.574.223.056.461-.028.689 0 .412.052.83.412 1.263.46.812.09 1.709 0 2.525 0 1.328 0 2.838.172 4.133-.115.25-.056.44-.282.689-.345.223-.056.461.03.689 0 .543-.072 1.062-.284 1.607-.344.678-.075 1.404-.146 2.066-.344.742-.223.236-.29 1.034-.69.102-.05.238.046.344 0 .176-.074.288-.258.46-.344.292-.146.708-.093.918-.344.142-.171.165-.44.344-.574.302-.226.683-.32 1.033-.46.036-.013.094.033.115 0 .142-.213.163-.507.344-.688.537-.536.794-.185 1.378-.574.16-.106.22-.314.344-.46.104-.12 1.663-1.577 1.722-1.607.175-.087.392-.046.574-.114.456-.171.506-.539.804-.919.672-.855 1.456-1.625 2.067-2.525.203-.3.19-.705.344-1.034.154-.326.401-.601.574-.918.058-.106.045-.245.115-.344 1.811-2.588-.705 1.828 1.377-2.526.193-.403.421-.791.69-1.148.064-.086.18-.133.229-.23.146-.292.207-.621.344-.918q.321-.7.69-1.378c.091-.168.258-.288.343-.459.2-.4.41-.818.46-1.263.025-.228-.038-.462 0-.689.086-.514.539-1.792.688-2.18.05-.13.186-.214.23-.345.074-.221.094-.457.115-.689.017-.19-.086-.403 0-.574.054-.108.272-.018.344-.115.07-.092-.03-.233 0-.344.086-.316.241-.608.345-.919.109-.326-.057-.693 0-1.033.028-.169.188-.293.23-.459.094-.38.062-1.534.114-1.952.057-.451.38-.596.574-1.033.047-.105-.019-.231 0-.344.06-.358.273-.678.344-1.034.355-1.771-.648 1.535.115-1.262.045-.165.183-.295.23-.46.113-.396-.025-1.12.115-1.492.547-1.459.209.447.574-1.378.06-.3 0-.612 0-.918 0-1.28-.127-2.633 0-3.903.117-1.175.409-2.245.459-3.444.078-1.868 0-3.756 0-5.626v-3.444c0-.513-.086-1.25 0-1.722.025-.135.2-.21.23-.344.082-.374 0-.765 0-1.148 0-.816.04-1.486.114-2.296.01-.096-.012-.765 0-.804.074-.246.255-.448.345-.689.108-.288.026-.622.115-.918.049-.164.192-.292.23-.46.115-.522-.042-1.072 0-1.606.04-.52.357-.989.458-1.493.097-.487 0-1.115 0-1.607v-3.788m-64.518-111.244v5.97c0 .477-.127 1.28 0 1.722.03.104.18.133.23.23.033.068-.015.154 0 .23.062.346.179.683.229 1.033.027.189-.046.388 0 .574.034.133.186.213.23.344.035.109-.037.235 0 .344.253.76.721 1.477.803 2.296.112 1.123 0 2.317 0 3.444 0 .498-.089 1.003 0 1.493.05.274.18.53.23.803.122.672 0 1.506 0 2.182v4.936c0 .982-.081 2.008 0 2.985.013.157.099.302.114.46.07.696-.166 1.745 0 2.41.062.25.291.438.345.689.224 1.047-.211 2.387 0 3.444.048.237.177.453.23.689.17.765-.13 1.636 0 2.41.203 1.22.238.553.344 1.608.015.152-.045.313 0 .46.11.36.362.668.46 1.032.058.222-.042.463 0 .69-.506.58.281.439.344.688.058.233.133 1.07.23 1.263.084.17.283.277.344.459.554 1.665-.607-.349.344.918.095.128-.023.962 0 1.148.032.255.263.446.344.69.1.298-.026.751.115 1.032.062.124.181.216.23.345.082.218-.05.524.115.689.135.135.366.177.459.344.94 1.693-.288.142.23.918.715 1.074.448.784 1.033 1.837.131.237.44.34.574.574.078.137.037.322.114.46.215.375.634.592.919.918.144.165.695.952.803 1.033.097.073.241.053.345.115.38.228.808 1.068 1.263 1.263.935.4-.02-.593.918.344.027.027 0 .076 0 .115.077.115.125.255.23.344.17.146.402.202.574.345.323.01.029.259.114.344.098.098.247.132.345.23.027.027 0 .076 0 .115.23.23.446.473.689.688.58.516.128-.099.689.574q.134.159.23.345c.053.108.01.284.114.344.202.116.47.033.689.115.358.134.454.616.689.918-.177.27.642.413.688.46.256.255.274.718.574.918.132.087.324.034.46.115.464.279 1.26 1.262 1.722 1.377.111.028.238-.045.344 0 .411.177.622.513 1.033.69.106.044.236-.037.345 0 .127.041.756.553.803.573.106.045.234-.03.345 0 .164.047.293.188.459.23.3.075.617.05.918.115.237.05.45.192.69.23.746.114 1.658 0 2.41 0h3.1c.459 0 .924.074 1.377 0 2.065-.345-.449-.043 1.148-.575.182-.06.385.032.574 0 .053-.01.063-.098.115-.115.45-.15.907-.292 1.378-.344.19-.02.388.046.574 0 .133-.033.217-.175.344-.23.845-.362.06.13 1.033-.114.134-.034.21-.2.345-.23.224-.05.469.066.688 0 .265-.079.415-.425.69-.46.227-.028.47.074.688 0 .154-.05.2-.27.345-.344.249-.124.535-.153.803-.23.23-.229.419-.508.689-.688.26-.288.731-.143 1.033-.344.135-.09.21-.255.345-.345.571-.38.177.273.918-.344.093-.078.029-.259.115-.345s.234-.066.344-.114a10 10 0 0 0 .689-.345c.655-.357 1.15-.804 1.722-1.263.267-.213.634-.269.918-.459 1.067-.71-.077-.038.46-.574.265-.265.896-.323 1.033-.459.377-.377.147-.393.344-.918.34-.908.113.298.69-.69.182-.313.157-.721.343-1.032.062-.104.267-.022.345-.115.296-.355.19-.955.574-1.263.095-.076.259-.03.344-.115.258-.257.48-1.606.69-2.066.4-.88.379-.296.688-1.378.074-.26.056-.54.115-.804.11-.491.122.04.344-.459.226-.509.252-1.09.46-1.607.05-.128.173-.218.229-.344.31-.698.372-1.485.689-2.182.092-.203.268-.364.344-.574.092-.254-.01-.561.115-.803.222-.445.414-.899.574-1.378.088-.264.012-.662.115-.918.05-.128.186-.214.23-.345.072-.218-.057-.466 0-.689.01-.025.424-1.183.459-1.492.02-.19-.046-.388 0-.574.034-.134.198-.21.23-.344.085-.375.043-.77.114-1.148.264-1.41.17.034.574-1.378.085-.297.04-.62.115-.918.042-.166.192-.292.23-.46.041-.186-.06-.392 0-.574.026-.08.19-.038.23-.114.05-.103 0-.23 0-.345v-1.033c0-1.242-.114-2.55 0-3.789.196-2.169.114-4.363.114-6.543 0-1.01-.052-1.98-.115-2.985-.017-.267.035-.538 0-.804-.042-.312-.178-.607-.23-.918-.025-.151.045-.313 0-.46-.11-.36-.372-.666-.459-1.033-.256-1.088.227-1.055-.23-2.296-.147-.401-.456-.736-.573-1.148-.117-.406-.026-.85-.115-1.262-.03-.135-.2-.21-.23-.345-.05-.224.04-.463 0-.689-.224-1.272-.582-1.552-1.033-2.755-.175-.467-.098-1.03-.23-1.492-.175-.614-.324-.638-.574-1.263-.09-.227-.544-1.346-.574-1.492-.038-.188.06-.393 0-.575-.098-.292-.32-.527-.459-.803-.646-1.291.094.063-.344-1.033-.469-1.171-.224-.212-.574-1.263-.267-.801-.652-1.576-.804-2.411-.02-.113.033-.234 0-.344-.118-.395-.391-.742-.46-1.148-.018-.114.044-.238 0-.345-.04-.1-.152-.153-.229-.23m-55.793-104.239v4.821c0 .358-.09.907 0 1.263.06.24.314.844.344 1.148.047.467-.097.652.115 1.033.134.241.336.442.459.689.138.276.056.913.115 1.263.038.23.04.468.115.689.054.162.182.294.23.459.174.612-.097 1.442 0 2.066.036.24.176.453.229.69.16.716-.214 2.112 0 2.754.103.31.28.598.344.919.085.426-.165 1.45 0 1.837.258.6.677 1.663.804 2.296.243 1.214-.435-.916.115.918.059.197.173.376.23.574.02.073 0 .153 0 .23.075.306.13.619.229.918.108.325.403.58.46.918 0 1.862-.122.018.343 1.723.111.406-.073.848 0 1.262.184 1.043.505 2.058.69 3.1.078.447-.114 1.04 0 1.492.087.353.277.677.344 1.034.063.338-.067.695 0 1.033.244 1.22.25.603.344 1.837.015.19-.027.384 0 .574.012.085.104.144.115.23.029.227-.05.464 0 .688.03.135.186.214.23.345.02.059.074 1.144.114 1.262.061.182.27.284.345.46.045.105-.025.232 0 .344.079.354.284.675.344 1.033.02.113-.032.234 0 .345.047.164.176.296.23.459.363 1.091-.155.029.114 1.377.093.465.533.38.804.69.878 1.002-.21.154.23 1.032.133.268.408.44.574.69.067.1.053.24.115.344.282.47.758.897 1.033 1.377.127.223.202.475.344.69.166.248.398.446.574.688.131.18.21.395.345.574.2.268.625.536.803.803.114.172.138.39.23.574.272.546.835.335 1.148.804.064.095 0 .23 0 .344.115.192.21.396.344.574.277.37.682.639.919 1.034.205.343.01.467.344.803.121.121.322.127.46.23.03.023-.022.083 0 .115.172.258.55.413.688.689.092.184.106.409.23.574.114.153.334.199.459.344.321.375.423.98.689 1.378.26.39.7.595.918 1.033.171.342.058.469.344.803.045.052.608.412.69.574.07.142.043.319.114.46.048.097.174.136.23.23.062.103.029.258.115.344 1.052 1.052.114-.153 1.033.459.115.076.112.271.23.344.31.194 1.43.521 1.721.574.113.021.24-.045.345 0 .176.075.288.26.459.345.144.072 3.407 0 3.444 0 1.728 0 3.452.04 5.166-.115.19-.017.396.07.574 0 .071-.028-.069-.196 0-.23 2.3-1.15.285.015 1.722-.344.134-.034.212-.192.345-.23.22-.063.475.085.688 0 .807-.403.78-.421 1.493-.689l.344-.114c.077 0 .157.024.23 0 .276-.092.522-.268.803-.345.148-.04.32.063.46 0 .3-.136.514-.416.803-.574.139-.076.348 0 .46-.115.145-.145.083-.428.23-.574.11-.111.31-.059.458-.114.16-.06.306-.153.46-.23.736-.368 1.448-.782 2.18-1.148.612-.305 1.055-.895 1.608-1.263.257-.17.55-.282.804-.459.675-.473 1.195-1.209 1.836-1.722.134-.107.327-.121.46-.23.613-.502 3.047-2.976 3.214-3.559.064-.223.033-.47.115-.688.1-.268.873-.997 1.033-1.263.264-.44.498-.901.689-1.378.043-.106-.067-.25 0-.344.142-.2.42-.268.574-.46.508-.635.232-.888.689-1.607.102-.161.353-.185.459-.344.134-.201.121-.472.23-.689.085-.17.266-.284.344-.459.079-.178.02-.403.115-.574.105-.19.339-.28.459-.46.229-.342.292-.77.46-1.147.195-.44.492-.593.688-1.033.125-.282.01-.629.115-.919.288-.793.929-1.576 1.033-2.41.043-.343-.077-.698 0-1.034l.344-1.033c0-.192-.042-.387 0-.574.093-.418.457-.737.574-1.148.28-.976.01-1.998.115-2.985.043-.388.181-.76.23-1.148.054-.428 0-.938 0-1.378v-3.329c0-.705.093-1.484 0-2.181-.042-.313-.178-.607-.23-.919-.139-.833-.16-1.683-.23-2.525-.1-1.205 0-2.463 0-3.674 0-.268.045-.54 0-.803-.033-.204-.2-.37-.229-.574-.128-.898.149-1.862 0-2.756-.04-.238-.182-.451-.23-.688-.111-.56 0-1.27 0-1.837v-10.907" transform="translate(67.105 112.655)scale(.92144)"/></svg>